<?xml version="1.0" standalone="no"?>
<!DOCTYPE svg PUBLIC "-//W3C//DTD SVG 20010904//EN"
 "http://www.w3.org/TR/2001/REC-SVG-20010904/DTD/svg10.dtd">
<svg version="1.0" xmlns="http://www.w3.org/2000/svg"
 width="512.000000pt" height="512.000000pt" viewBox="0 0 512.000000 512.000000"
 preserveAspectRatio="xMidYMid meet">

<g transform="translate(0.000000,512.000000) scale(0.100000,-0.100000)"
fill="#000000" stroke="none">
<path d="M1155 4773 c-100 -8 -249 -38 -341 -68 -381 -125 -621 -377 -705
-743 -26 -113 -36 -395 -20 -542 11 -90 59 -362 77 -426 4 -17 0 -23 -18 -27
-38 -10 -94 -64 -117 -113 -31 -65 -38 -163 -17 -244 39 -150 146 -258 299
-300 59 -16 61 -18 77 -66 41 -119 113 -226 223 -330 129 -123 289 -200 466
-226 45 -7 81 -16 81 -20 0 -4 -42 -8 -92 -8 -186 -1 -318 -50 -428 -160 -38
-38 -78 -91 -97 -129 -47 -91 -44 -140 9 -167 44 -23 75 -2 121 81 21 39 54
86 74 106 73 76 195 118 341 119 60 0 74 -3 79 -18 31 -93 92 -165 175 -209
47 -24 64 -28 143 -28 71 0 100 5 137 22 69 32 134 97 169 169 l30 64 480 0
480 0 -40 -53 c-48 -63 -97 -165 -106 -218 l-7 -39 -108 0 c-119 0 -152 -9
-169 -47 -7 -16 -11 -131 -11 -344 l0 -319 -677 2 -678 3 -5 226 c-5 240 -8
251 -55 263 -29 7 -80 -15 -89 -39 -3 -9 -6 -116 -6 -237 l0 -221 -46 7 c-26
3 -69 6 -95 6 l-49 0 0 234 c0 241 -6 288 -40 306 -32 17 -70 11 -95 -15 l-25
-24 0 -295 c0 -312 3 -335 47 -355 17 -8 297 -11 967 -11 938 0 943 0 970 21
l26 20 2 332 3 332 65 0 65 0 3 -332 2 -332 26 -20 c27 -21 32 -21 970 -21
670 0 950 3 967 11 14 6 30 22 36 36 18 39 15 759 -4 846 -20 96 -69 188 -139
262 -34 36 -69 76 -79 90 -10 14 -37 35 -60 47 -38 21 -59 23 -214 26 -95 2
-173 7 -173 11 0 4 36 12 81 19 177 26 337 103 466 226 110 104 182 211 223
330 16 48 18 50 77 66 164 45 277 169 306 334 32 186 -66 336 -220 340 -32 0
-70 -2 -86 -7 l-27 -7 0 743 c0 832 3 797 -71 881 -22 25 -65 57 -97 73 l-57
28 -920 0 -920 0 -68 -33 c-38 -19 -78 -47 -92 -66 l-25 -33 -62 24 c-109 44
-228 63 -383 62 -135 -1 -143 0 -245 34 -214 73 -480 108 -685 90z m359 -169
c124 -19 233 -46 328 -81 68 -24 86 -26 248 -28 198 -2 268 -17 392 -82 82
-43 179 -141 225 -229 124 -233 126 -619 6 -1088 -23 -90 -32 -110 -50 -117
-23 -8 -23 -7 -23 65 0 89 -13 105 -112 130 -175 46 -333 204 -431 430 -21 49
-46 96 -55 103 -32 24 -70 15 -115 -26 -251 -230 -691 -395 -1347 -505 -235
-39 -239 -41 -249 -132 l-6 -59 -28 125 c-45 207 -58 307 -64 480 -10 310 50
523 198 700 125 151 356 270 604 314 111 20 354 20 479 0z m2636 -974 c0 -6
11 -22 25 -35 22 -23 31 -25 129 -25 l104 0 4 -142 c3 -138 4 -145 34 -198 33
-59 110 -125 157 -136 l29 -6 -4 -341 -4 -342 -27 -80 c-83 -239 -257 -403
-498 -472 -57 -16 -108 -18 -454 -18 -288 0 -405 3 -448 13 -184 43 -351 159
-450 314 -33 50 -67 121 -67 137 0 4 26 18 57 31 120 50 227 200 240 336 6 64
6 65 19 36 25 -60 91 -80 133 -41 34 32 51 81 51 149 0 102 -43 170 -106 170
-42 0 -78 -42 -94 -110 l-12 -52 -18 39 c-10 22 -37 57 -62 78 l-45 39 29 115
c34 132 78 384 78 442 l0 39 503 0 c531 1 520 0 546 48 10 20 19 22 81 22 42
0 70 -4 70 -10z m-2159 -162 c103 -202 283 -373 447 -425 l53 -17 -4 -306 c-4
-337 -8 -363 -73 -496 -71 -145 -207 -274 -353 -335 -137 -57 -175 -61 -606
-57 l-390 4 -80 27 c-115 38 -199 91 -291 183 -68 67 -89 96 -127 175 -70 145
-77 193 -77 512 l0 274 83 12 c522 77 1054 255 1307 435 41 30 78 55 82 55 4
1 17 -18 29 -41z m-1706 -642 c22 -9 36 -23 39 -38 6 -29 14 -328 9 -328 -2 0
-21 9 -42 20 -140 71 -190 304 -76 351 28 11 31 11 70 -5z m2513 -23 c33 -36
31 -140 -4 -211 -27 -55 -79 -105 -126 -121 l-28 -10 0 149 c0 82 4 160 10
175 12 30 64 56 100 48 14 -3 35 -16 48 -30z m2137 2 c25 -24 30 -53 25 -130
-5 -72 -57 -149 -127 -188 l-48 -26 5 166 c5 158 6 166 29 184 33 27 86 25
116 -6z m-2351 -672 c32 -67 103 -158 174 -224 126 -116 271 -187 441 -216 56
-10 101 -21 101 -25 0 -5 -333 -8 -740 -8 -684 0 -841 6 -682 25 182 21 360
106 495 233 63 61 134 153 163 215 10 20 21 37 24 37 3 0 14 -17 24 -37z
m-914 -520 c0 -146 -102 -237 -227 -204 -90 24 -133 90 -133 201 l0 70 180 0
180 0 0 -67z m2140 -5 c0 -144 -101 -230 -227 -193 -87 26 -133 98 -133 208
l0 47 180 0 180 0 0 -62z m481 -115 c14 -14 24 -93 15 -127 -11 -44 -32 -56
-98 -56 -88 0 -98 12 -98 118 l0 84 85 -3 c46 -2 89 -9 96 -16z"/>
<path d="M4132 2957 c-89 -94 -53 -317 51 -317 56 0 107 80 107 170 0 126 -95
214 -158 147z"/>
<path d="M3475 2715 c-30 -29 -32 -74 -6 -106 18 -23 26 -24 153 -27 124 -3
135 -2 161 18 38 30 38 90 1 119 -24 19 -40 21 -156 21 -124 0 -130 -1 -153
-25z"/>
<path d="M3375 2495 c-34 -33 -32 -72 7 -129 103 -156 320 -181 456 -52 70 65
91 145 49 184 -45 42 -101 23 -136 -46 -30 -58 -133 -81 -195 -42 -18 10 -42
37 -54 58 -33 60 -85 70 -127 27z"/>
<path d="M880 2950 c-62 -67 -62 -213 0 -280 56 -60 127 -20 151 85 23 105
-28 225 -96 225 -17 0 -37 -11 -55 -30z"/>
<path d="M2001 2964 c-84 -60 -77 -265 12 -314 24 -13 30 -13 54 0 45 26 66
65 71 130 6 83 -4 125 -40 165 -33 39 -61 44 -97 19z"/>
<path d="M1353 2730 c-44 -18 -57 -86 -23 -120 18 -18 33 -20 159 -20 139 0
140 0 160 26 12 15 21 33 21 40 0 26 -23 62 -47 73 -28 13 -238 14 -270 1z"/>
<path d="M1235 2495 c-34 -33 -32 -71 6 -128 108 -163 332 -180 465 -35 72 78
80 145 21 178 -37 21 -75 4 -111 -49 -37 -55 -99 -85 -153 -75 -36 7 -60 27
-133 112 -25 29 -65 28 -95 -3z"/>
</g>
</svg>
